  <svg width="65px" class="company-logo" height="79px" viewBox="0 0 65 79" version="1.1" xmlns="http://www.w3.org/2000/svg" xmlns:xlink="http://www.w3.org/1999/xlink">
    <g id="Page-1" stroke="none" stroke-width="1" fill="none" fill-rule="evenodd">
        <g id="Artboard-Copy-2" transform="translate(-100.000000, -366.000000)" fill="#378888" fill-rule="nonzero">
            <g id="Content" transform="translate(40.000000, 113.000000)">
                <g id="apple-seeklogo.com" transform="translate(60.000000, 253.000000)">
                    <path d="M54.286018,41.6912795 C54.3981953,53.7365365 64.8838333,57.7448944 65,57.7960559 C64.911339,58.0787474 63.3245699,63.5083586 59.4756678,69.1167591 C56.1484612,73.9655054 52.6952596,78.7964899 47.2554466,78.8965437 C41.9102864,78.9947456 40.1915191,75.7361049 34.0804877,75.7361049 C27.9713022,75.7361049 26.0616736,78.7964818 21.0018841,78.9947456 C15.7510846,79.1928644 11.7526559,73.7514687 8.39779888,68.9204844 C1.54255491,59.0385429 -3.69626992,40.9964393 3.33814762,28.8177252 C6.83269618,22.7697263 13.0777186,18.9398808 19.8561321,18.8416716 C25.012283,18.7436046 29.8790766,22.3004294 33.031097,22.3004294 C36.1811188,22.3004294 42.0953089,18.0230359 48.3126787,18.6512252 C50.9154821,18.7592401 58.2215941,19.6995406 62.9130493,26.5465625 C62.5350337,26.7802195 54.1953623,31.6210036 54.286018,41.6912909 M44.4950984,12.855869 C47.2950315,9.45233795 49.1795478,4.71430796 48.6654314,0 C44.6295383,0.162892223 39.7492367,2.70077308 36.8543804,6.10243161 C34.2600333,9.11475867 31.9879684,13.9361802 32.6010108,18.5571818 C37.0994876,18.9066938 41.6950276,16.2615645 44.4950984,12.8558745" id="Shape"></path>
                </g>
            </g>
        </g>
    </g>
</svg>