<svg width="169px" height="34px" viewBox="0 0 169 34" version="1.1" xmlns="http://www.w3.org/2000/svg" xmlns:xlink="http://www.w3.org/1999/xlink">
    <defs>
        <polygon id="path-1" points="0.000666666667 0.509469231 9.37622222 0.509469231 9.37622222 21.9172292 0.000666666667 21.9172292"></polygon>
        <polygon id="path-3" points="0.524288235 0.202695238 18.1885882 0.202695238 18.1885882 16.9258857 0.524288235 16.9258857"></polygon>
        <polygon id="path-5" points="0.671258824 0.509469231 18.9023176 0.509469231 18.9023176 21.9170008 0.671258824 21.9170008"></polygon>
        <polygon id="path-7" points="0.222971429 0.1192 5.31325714 0.1192 5.31325714 6 0.222971429 6"></polygon>
        <polygon id="path-9" points="0.08532 0.118971429 5.67132 0.118971429 5.67132 6 0.08532 6"></polygon>
        <polygon id="path-11" points="0.1188 0.238057143 3.9568 0.238057143 3.9568 6 0.1188 6"></polygon>
    </defs>
    <g id="Page-1" stroke="none" stroke-width="1" fill="none" fill-rule="evenodd">
        <g id="Artboard-Copy-2" transform="translate(-1245.000000, -23.000000)">
            <g id="ITRG-Logo" transform="translate(1245.000000, 23.000000)">
                <g id="Page-1">
                    <g id="Group-3">
                        <mask id="mask-2" fill="white">
                            <use xlink:href="#path-1"></use>
                        </mask>
                        <g id="Clip-2"></g>
                        <path d="M9.37622222,21.9172292 L0.000666666667,21.9172292 L0.000666666667,20.8457446 C0.262888889,20.8251831 0.644,20.7954831 1.144,20.75436 C1.64288889,20.7143792 1.994,20.6549792 2.19955556,20.5727331 C2.52288889,20.44251 2.75733333,20.26431 2.90511111,20.0381331 C3.05177778,19.8119562 3.12511111,19.4966792 3.12511111,19.0945869 L3.12511111,3.58661769 C3.12511111,3.23592923 3.07177778,2.94121385 2.964,2.70475615 C2.85622222,2.46829846 2.60177778,2.26953692 2.19955556,2.10847154 C1.90622222,1.98738692 1.53733333,1.87429846 1.09177778,1.76806385 C0.647333333,1.66411385 0.282888889,1.60014462 0.000666666667,1.57958308 L0.000666666667,0.509240769 L9.37622222,0.509240769 L9.37622222,1.57958308 C9.07288889,1.59100615 8.71066667,1.62870231 8.29066667,1.69267154 C7.87066667,1.75892538 7.50288889,1.84117154 7.18955556,1.94169462 C6.81733333,2.06277923 6.56844444,2.25925615 6.44066667,2.53112538 C6.31511111,2.80299462 6.25066667,3.10342154 6.25066667,3.43583308 L6.25066667,18.9289523 C6.25066667,19.2613638 6.32177778,19.5549369 6.46288889,19.8119562 C6.60511111,20.0678331 6.84622222,20.2723062 7.18955556,20.4230908 C7.39511111,20.5041946 7.73066667,20.59101 8.19511111,20.6858215 C8.65844444,20.7817754 9.05288889,20.8354638 9.37622222,20.8457446 L9.37622222,21.9172292 Z" id="Fill-1" fill="#2576B7" mask="url(#mask-2)"></path>
                    </g>
                    <path d="M33,4.84282933 C32.7667436,4.85165477 32.4133949,4.91343284 31.9330254,5.03257625 C31.4515012,5.15171966 31.1073903,5.27306944 30.9018476,5.39993511 C30.6027714,5.59850746 30.4018476,5.9780013 30.2990762,6.53951979 C30.1951501,7.10103829 30.1431871,7.81258923 30.1431871,8.67417262 L30.1431871,21 L29.0635104,21 L18.3833718,7.22790396 L18.3833718,15.9110318 C18.3833718,16.8840363 18.448037,17.630889 18.5750577,18.1537962 C18.7055427,18.6767034 18.9006928,19.0473718 19.1662818,19.269111 C19.3556582,19.4423102 19.7505774,19.6055808 20.3464203,19.7567164 C20.9422633,19.9067489 21.334873,19.9861778 21.5254042,19.9927969 L21.5254042,20.8356262 L14.2979215,20.8356262 L14.2979215,19.9927969 C14.5207852,19.9773524 14.8983834,19.9001298 15.4284065,19.7611291 C15.9572748,19.6232317 16.2875289,19.4985724 16.4203233,19.3882544 C16.7101617,19.1665152 16.9099307,18.8289422 17.0184758,18.373329 C17.1247113,17.9188189 17.1789838,17.1410772 17.1789838,16.0423102 L17.1789838,7.74970798 C17.1789838,7.38455548 17.113164,7.02160934 16.9803695,6.65866321 C16.8487298,6.29351071 16.6709007,6.01440623 16.4457275,5.81583387 C16.147806,5.55548345 15.7459584,5.33043478 15.2355658,5.1439974 C14.7251732,4.95976639 14.3152425,4.85827385 14,4.84282933 L14,4 L19.0288684,4 L28.9387991,16.8377028 L28.9387991,8.82972096 C28.9387991,7.84789098 28.8729792,7.09552239 28.7401848,6.56930565 C28.608545,6.04198572 28.4180139,5.69338092 28.1685912,5.5201817 C27.9376443,5.36904607 27.5577367,5.22232317 27.0323326,5.08001298 C26.5080831,4.93659961 26.108545,4.85827385 25.834873,4.84282933 L25.834873,4 L33,4 L33,4.84282933 Z" id="Fill-4" fill="#2576B7"></path>
                    <path d="M67.6494649,18.6233117 C68.1165042,17.8894447 68.4549049,17.0565283 68.6658259,16.1290645 C68.8779058,15.2016008 68.9833663,14.1638319 68.9833663,13.0191346 C68.9833663,11.8395448 68.8663167,10.7590045 68.627582,9.77413707 C68.3923239,8.7903952 68.044652,7.95072536 67.5880428,7.25625313 C67.1291158,6.57078539 66.5577749,6.03614307 65.8670666,5.65345173 C65.1775172,5.27076038 64.3894608,5.07716358 63.4994205,5.07716358 C62.5039198,5.07716358 61.6544413,5.29889945 60.9579385,5.74237119 C60.2602768,6.18696848 59.6912537,6.78126563 59.2497103,7.52301151 C58.8359806,8.23324162 58.5242348,9.06390695 58.3202672,10.0172586 C58.1174586,10.9694847 58.0154748,11.9689845 58.0154748,13.0191346 C58.0154748,14.1807154 58.124412,15.2297399 58.3411275,16.163957 C58.5566842,17.1015508 58.8974027,17.9322161 59.3621242,18.6604552 C59.8117799,19.3695598 60.3761674,19.9244622 61.0576045,20.3251626 C61.7378826,20.7224862 62.5537528,20.9228364 63.4994205,20.9228364 C64.3894608,20.9228364 65.1902652,20.7213607 65.9053105,20.3172836 C66.6203559,19.9132066 67.200968,19.3504252 67.6494649,18.6233117 M69.507192,6.44584792 C70.288295,7.235993 70.8978799,8.1915958 71.3394233,9.30815408 C71.7786489,10.4258379 72,11.6628314 72,13.0191346 C72,14.3821911 71.776331,15.6214357 71.3266753,16.7346173 C70.8781785,17.8489245 70.2546868,18.7966483 69.458518,19.5777889 C68.6855273,20.3533017 67.7862158,20.9498499 66.7663781,21.3696848 C65.7430636,21.7895198 64.6548504,22 63.4994205,22 C62.2698207,22 61.1340923,21.7771386 60.0910764,21.328039 C59.0480605,20.880065 58.1522258,20.2565033 57.40589,19.4584792 C56.6583953,18.673962 56.0708296,17.7251126 55.6420342,16.6074287 C55.2143977,15.4897449 55,14.2932716 55,13.0191346 C55,11.6223112 55.2248279,10.3774387 55.6744836,9.2833917 C56.1218215,8.1915958 56.7395187,7.24387194 57.5310519,6.44584792 C58.310996,5.65570285 59.2195787,5.04902451 60.2533233,4.62806403 C61.2882269,4.20935468 62.3706456,4 63.4994205,4 C64.6710751,4 65.7766719,4.21498249 66.8150522,4.64157079 C67.8534324,5.06928464 68.7504261,5.67146073 69.507192,6.44584792" id="Fill-6" fill="#2576B7"></path>
                    <path d="M127.1056,15.9909621 C126.988738,16.3605999 126.720302,16.9317572 126.30145,17.7100007 C125.882598,18.4893575 125.482259,19.0705351 125.100432,19.4546467 C124.959272,19.598271 124.720919,19.7118344 124.384218,19.795337 C124.048673,19.8777261 123.722385,19.9367346 123.407667,19.9690222 C123.099892,20.0013098 122.722694,20.016897 122.274915,20.016897 L121.191916,20.016897 C120.502314,20.016897 119.971228,19.9946296 119.598658,19.9512083 C119.223774,19.907787 118.929883,19.8086974 118.714671,19.6572795 C118.498303,19.5069749 118.352515,19.2831882 118.27962,18.9859192 C118.203255,18.6919903 118.16623,18.2878381 118.16623,17.7768027 L118.16623,12.6731286 L120.15867,12.6731286 C120.695541,12.6731286 121.130592,12.71989 121.459195,12.8178663 C121.78664,12.9136158 122.079374,13.1162486 122.337396,13.4279914 C122.494755,13.6206038 122.645171,13.9290065 122.79096,14.3565394 C122.935591,14.7840723 123.024684,15.1882245 123.059395,15.5723361 L123.991978,15.5723361 L123.991978,8.92442203 L123.059395,8.92442203 C123.017741,9.26733905 122.93212,9.63252341 122.803687,10.0199751 C122.674098,10.4085402 122.52021,10.7169428 122.337396,10.9474098 C122.111771,11.2212981 121.853749,11.4139105 121.558701,11.5297007 C121.262496,11.6454909 120.797362,11.7033859 120.15867,11.7033859 L118.16623,11.7033859 L118.16623,4.97753618 L118.408053,4.97753618 L118.505245,4.97753618 L121.932428,4.97753618 C122.281857,4.97753618 122.657899,4.98755649 123.066338,5.00425699 C123.472462,5.01984413 124.960429,5.18128234 125.932351,6.53513655 C126.182274,6.90143428 126.853363,8.04152204 126.853363,8.04152204 L127.829914,8.04152204 L127.54875,4 L121.308778,4 L118.147717,4 L113,4 L113,4.85061235 C113.223311,4.86619949 113.525301,4.91518764 113.902499,4.99535006 C114.280855,5.07439911 114.580531,5.16680857 114.804998,5.27035169 C115.095418,5.39838889 115.286331,5.5631672 115.377738,5.76914009 C115.469145,5.97065951 115.51427,6.20446657 115.51427,6.46722117 L115.51427,18.6864235 C115.51427,18.9825791 115.462203,19.2264064 115.359226,19.4179056 C115.255091,19.6094047 115.07112,19.765276 114.804998,19.8855197 C114.681194,19.941188 114.410444,19.9946296 113.99622,20.0469579 C113.581996,20.0992861 113.248766,20.1326871 113,20.1482743 L113,21 L127.665612,21 L128,15.9909621 L127.1056,15.9909621 Z" id="Fill-8" fill="#2576B7"></path>
                    <path d="M138.988717,22 C137.939903,22 136.933686,21.7969543 135.972369,21.3908629 C135.009901,20.9892837 134.157955,20.4049633 133.41423,19.6446701 C132.680866,18.8843768 132.092563,17.9571348 131.655077,16.8595601 C131.217592,15.7631134 131,14.5267908 131,13.1517202 C131,11.7766497 131.214138,10.5290468 131.643564,9.40665539 C132.074142,8.28539199 132.66705,7.32205302 133.426894,6.51212634 C134.178678,5.71122391 135.067465,5.09193457 136.0898,4.65538635 C137.114437,4.2177101 138.208151,4 139.373244,4 C140.239005,4 141.025328,4.10490694 141.727608,4.31584884 C142.426433,4.52566272 143.096477,4.82120699 143.733134,5.20248167 L144.240847,4.37563452 L145.230946,4.37563452 L145.343772,10.5177665 L144.328344,10.5177665 C144.194796,9.91878173 143.997928,9.27016356 143.733134,8.56965595 C143.46834,7.87027637 143.159797,7.27693175 142.804052,6.79187817 C142.408013,6.24139876 141.935989,5.80936266 141.391434,5.49915398 C140.84688,5.18781726 140.222887,5.03102087 139.520608,5.03102087 C138.721621,5.03102087 137.975593,5.20586576 137.285977,5.55442752 C136.597513,5.90186125 135.998849,6.41511562 135.49574,7.09531867 C135.016809,7.75070502 134.641492,8.58432036 134.368639,9.59503666 C134.096938,10.606881 133.958784,11.7360406 133.958784,12.9825155 C133.958784,14.0800902 134.102694,15.0919346 134.38706,16.0090243 C134.672577,16.927242 135.078978,17.7349126 135.607414,18.4309081 C136.1347,19.1190073 136.760995,19.6570784 137.483997,20.0451213 C138.205848,20.4342922 139.014046,20.6271856 139.905135,20.6271856 C140.575178,20.6271856 141.189961,20.5245347 141.750633,20.3192329 C142.313608,20.1116751 142.798296,19.8386915 143.213907,19.500282 C143.626065,19.143824 143.988717,18.7377327 144.303016,18.28652 C144.617315,17.8319233 144.872899,17.3378455 145.070919,16.8042865 L146,17.2408347 C145.289662,18.9475465 144.347916,20.1680767 143.175915,20.9001692 C142.002763,21.6333897 140.607414,22 138.988717,22" id="Fill-10" fill="#2576B7"></path>
                    <g id="Group-14" transform="translate(150.000000, 4.000000)">
                        <mask id="mask-4" fill="white">
                            <use xlink:href="#path-3"></use>
                        </mask>
                        <g id="Clip-13"></g>
                        <path d="M18.1887,16.9258857 L11.1061706,16.9258857 L11.1061706,16.0880286 C11.2972882,16.0726952 11.5755824,16.0486 11.9421706,16.0168381 C12.3054059,15.9861714 12.5568765,15.9390762 12.6932294,15.8766476 C12.9324059,15.7824571 13.1101118,15.638981 13.2218765,15.4451238 C13.3347588,15.2523619 13.3906412,15.0048381 13.3906412,14.6981714 L13.3906412,8.74555238 L5.36928824,8.74555238 L5.36928824,14.5667429 C5.36928824,14.8427429 5.41511176,15.0749333 5.50899412,15.262219 C5.60064118,15.4516952 5.7817,15.615981 6.05552353,15.7583619 C6.19075882,15.8295524 6.43440588,15.8996476 6.78199412,15.9708381 C7.1307,16.0409333 7.40675882,16.0814571 7.6057,16.0880286 L7.6057,16.9258857 L0.524288235,16.9258857 L0.524288235,16.0880286 C0.716523529,16.0726952 0.994817647,16.0486 1.35805294,16.0168381 C1.72352353,15.9861714 1.97387647,15.9390762 2.11134706,15.8766476 C2.35164118,15.7824571 2.52711176,15.638981 2.63999412,15.4451238 C2.75175882,15.2523619 2.80764118,15.0048381 2.80764118,14.6981714 L2.80764118,2.62974286 C2.80764118,2.37893333 2.75511176,2.15002857 2.65228824,1.94302857 C2.54722941,1.7338381 2.36728824,1.56955238 2.11134706,1.4523619 C1.89340588,1.35050476 1.63187647,1.2596 1.32340588,1.1818381 C1.01493529,1.10298095 0.747817647,1.05479048 0.524288235,1.03945714 L0.524288235,0.202695238 L7.6057,0.202695238 L7.6057,1.03945714 C7.38217059,1.04821905 7.10722941,1.0843619 6.78199412,1.1446 C6.45899412,1.20921905 6.21534706,1.2683619 6.05552353,1.32312381 C5.7817,1.41731429 5.60064118,1.57393333 5.50899412,1.79407619 C5.41511176,2.01421905 5.36928824,2.25407619 5.36928824,2.51255238 L5.36928824,7.69740952 L13.3906412,7.69740952 L13.3906412,2.62974286 C13.3906412,2.37893333 13.3381118,2.15002857 13.2341706,1.94302857 C13.1302294,1.7338381 12.9502882,1.56955238 12.6932294,1.4523619 C12.4764059,1.35050476 12.2148765,1.2596 11.9052882,1.1818381 C11.5968176,1.10298095 11.3308176,1.05479048 11.1061706,1.03945714 L11.1061706,0.202695238 L18.1887,0.202695238 L18.1887,1.03945714 C17.9640529,1.04821905 17.6902294,1.0843619 17.3649941,1.1446 C17.0397588,1.20921905 16.7972294,1.2683619 16.6374059,1.32312381 C16.3647,1.41731429 16.1825235,1.57393333 16.0897588,1.79407619 C15.9969941,2.01421905 15.9522882,2.25407619 15.9522882,2.51255238 L15.9522882,14.5667429 C15.9522882,14.8427429 15.9969941,15.0749333 16.0897588,15.262219 C16.1825235,15.4516952 16.3647,15.615981 16.6374059,15.7583619 C16.7737588,15.8295524 17.0151706,15.8996476 17.3649941,15.9708381 C17.7137,16.0409333 17.9864059,16.0814571 18.1887,16.0880286 L18.1887,16.9258857 Z" id="Fill-12" fill="#2576B7" mask="url(#mask-4)"></path>
                    </g>
                    <path d="M51.7207884,4 L48.4863914,4 L42.348428,4 L37,4 L37,4.85105825 C37.2264195,4.86553961 37.5314406,4.91455344 37.9138902,4.99475788 C38.2963397,5.07384837 38.6013609,5.16630627 38.8289535,5.26990368 C39.1234162,5.39689404 39.3169873,5.56287268 39.4084937,5.76783959 C39.5011732,5.9705786 39.5469263,6.20450822 39.5469263,6.46740056 L39.5469263,18.7353384 C39.5469263,19.0216237 39.4917879,19.2689208 39.3768184,19.4727737 C39.2618489,19.6755127 39.0800094,19.8303519 38.8289535,19.9328353 C38.7010793,19.9896468 38.4289066,20.0353188 38.0077428,20.0709652 C37.5877522,20.1077256 37.2510558,20.1322325 37,20.1489417 L37,21 L44.7592679,21 L44.7592679,20.1489417 C44.5398874,20.1411441 44.2207884,20.0965861 43.7996246,20.0174956 C43.3784608,19.9372911 43.105115,19.8693401 42.9784139,19.8136426 C42.7027217,19.6855383 42.5079775,19.5184457 42.4000469,19.309023 C42.2897701,19.1018282 42.2346316,18.8656707 42.2346316,18.6016644 L42.2346316,12.7456261 L44.2911779,12.7456261 C44.8296574,12.7456261 45.2895354,12.7990957 45.6731581,12.906035 C46.0544345,13.0152021 46.3735336,13.2157133 46.6257626,13.5120241 C46.7935242,13.7125352 46.9507274,14.0355809 47.0985453,14.483389 C47.2451901,14.9300832 47.3320038,15.3288775 47.3578132,15.679772 L48.3162834,15.679772 L48.3162834,9.00720792 L47.3578132,9.00720792 C47.3144064,9.43162309 47.2252464,9.8281895 47.0856405,10.1991351 C46.9472079,10.5700806 46.7935242,10.8452264 46.6257626,11.0201166 C46.3817457,11.2763253 46.0884561,11.4656969 45.7423745,11.5893454 C45.3962928,11.7129939 44.9141248,11.7753751 44.2911779,11.7753751 L42.2346316,11.7753751 L42.2346316,4.96022541 L42.6076959,4.96022541 L42.705068,4.96022541 L46.1236509,4.96022541 C46.4709057,4.96022541 46.84397,4.96913702 47.252229,4.98696023 C47.6581417,5.00032763 49.1398405,5.16073652 50.1100422,6.49524933 C50.3587518,6.85505537 51.0262787,7.97457572 51.0262787,7.97457572 L52,7.97457572 L51.7207884,4 Z" id="Fill-15" fill="#2576B7"></path>
                    <g id="Group-19" transform="translate(89.000000, 0.000000)">
                        <mask id="mask-6" fill="white">
                            <use xlink:href="#path-5"></use>
                        </mask>
                        <g id="Clip-18"></g>
                        <path d="M18.5837882,0.509012308 L11.6543765,0.509012308 L7.92031765,0.509012308 L0.988670588,0.509012308 L0.671258824,5.37638538 L1.77661176,5.37638538 C1.77661176,5.37638538 2.53996471,4.00675846 2.82161176,3.56354308 C3.92584706,1.93118538 5.61125882,1.73585077 6.07508235,1.71643154 C6.19243529,1.71186231 6.28631765,1.71186231 6.3992,1.70843538 C8.0332,1.70729308 7.34249412,1.69244308 7.31231765,1.68787385 C7.32684706,1.68787385 7.34472941,1.68558923 7.35814118,1.68558923 L8.21314118,1.68558923 L8.21314118,18.8099238 C8.21314118,19.1411931 8.1472,19.4439046 8.00861176,19.7203431 C7.87114118,19.9979238 7.62861176,20.2126777 7.28437647,20.36232 C7.10667059,20.4331431 6.73561176,20.5279546 6.1712,20.6490392 C5.60455294,20.7689815 5.16308235,20.8352354 4.85014118,20.8455162 L4.85014118,21.9170008 L9.00443529,21.9170008 L10.5702588,21.9170008 L14.7245529,21.9170008 L14.7245529,20.8455162 C14.4093765,20.8352354 13.9690235,20.7689815 13.4034941,20.6490392 C12.8379647,20.5279546 12.4657882,20.4331431 12.2880824,20.36232 C11.9449647,20.2126777 11.7035529,19.9979238 11.5649647,19.7203431 C11.4274941,19.4439046 11.3593176,19.1411931 11.3593176,18.8099238 L11.3593176,1.68558923 L12.2143176,1.68558923 C12.2288471,1.68558923 12.2467294,1.68787385 12.2612588,1.68787385 C12.2288471,1.69244308 11.5403765,1.70729308 13.1732588,1.70843538 C13.2861412,1.71186231 13.3822588,1.71186231 13.4996118,1.71643154 C13.9612,1.73585077 15.6477294,1.93118538 16.7508471,3.56354308 C17.0358471,4.00675846 17.7947294,5.37638538 17.7947294,5.37638538 L18.9023176,5.37638538 L18.5837882,0.509012308 Z" id="Fill-17" fill="#2576B7" mask="url(#mask-6)"></path>
                    </g>
                    <path d="M0.482794042,30.8493317 L2.28762198,30.8493317 C2.43451464,30.8493317 2.57421674,30.8226002 2.7067283,30.7691373 C2.83923986,30.7156744 2.95531587,30.6391252 3.05392912,30.5382746 C3.15459682,30.4374241 3.23369286,30.3159174 3.29224448,30.1725395 C3.35182332,30.0291616 3.38161274,29.8651276 3.38161274,29.6804374 C3.38161274,29.3110571 3.29019004,29.0206561 3.10837185,28.8068044 C2.92552645,28.5941677 2.65228557,28.4884569 2.28762198,28.4884569 L0.482794042,28.4884569 L0.482794042,30.8493317 Z M0,28 L2.32357473,28 C2.53107345,28 2.72932717,28.0315917 2.91628146,28.0923451 C3.10323575,28.1543135 3.26656394,28.2478736 3.40626605,28.3742406 C3.54596816,28.5006075 3.65690806,28.6622114 3.74011299,28.8614824 C3.82331793,29.0607533 3.86440678,29.2940462 3.86440678,29.5625759 C3.86440678,29.9441069 3.78120185,30.2746051 3.61581921,30.5552855 C3.45043657,30.8347509 3.20390344,31.0145808 2.87724705,31.0923451 L2.87724705,31.109356 C3.04262969,31.1373026 3.18027735,31.1895504 3.28916281,31.2648846 C3.39804828,31.3402187 3.48638932,31.4374241 3.55521315,31.5552855 C3.62403698,31.673147 3.67334361,31.8092345 3.70518747,31.9623329 C3.73600411,32.1166464 3.75552131,32.2831106 3.76476631,32.4629405 C3.76990241,32.563791 3.77503852,32.6865128 3.77914741,32.8323208 C3.78428351,32.9769137 3.79352851,33.1251519 3.8079096,33.27339 C3.82126348,33.4216282 3.84386235,33.5613609 3.87570621,33.6938032 C3.90652286,33.8250304 3.94761171,33.927096 4,34 L3.46687211,34 C3.43810991,33.9441069 3.41551104,33.8760632 3.3990755,33.7946537 C3.38263996,33.7132442 3.3703133,33.6294046 3.36004109,33.5419198 C3.3507961,33.4556501 3.34463277,33.3693803 3.34257833,33.2855407 C3.34052388,33.2017011 3.336415,33.1287971 3.33127889,33.0680437 C3.3220339,32.8602673 3.30662558,32.6500608 3.28608115,32.4374241 C3.2645095,32.2235723 3.21931176,32.0352369 3.15048793,31.8699878 C3.0816641,31.7047388 2.98202363,31.5710814 2.85259373,31.4702309 C2.72213662,31.3705954 2.5434001,31.3256379 2.31535696,31.3365735 L0.482794042,31.3365735 L0.482794042,34 L0,34 L0,28 Z" id="Fill-20" fill="#2576B7"></path>
                    <polygon id="Fill-22" fill="#2576B7" points="13 28 16.960511 28 16.960511 28.4872418 13.5458769 28.4872418 13.5458769 30.6561361 16.7433217 30.6561361 16.7433217 31.1421628 13.5458769 31.1421628 13.5458769 33.5127582 17 33.5127582 17 34 13 34"></polygon>
                    <path d="M25.4896079,30.9840653 C25.4854646,31.2802176 25.5258616,31.5273999 25.6118346,31.7256121 C25.6978076,31.9249903 25.815891,32.08356 25.9660848,32.2013214 C26.1162787,32.3202487 26.2944396,32.4053634 26.5005677,32.4554994 C26.7046241,32.5068014 26.9252536,32.5324524 27.158313,32.5324524 C27.2929695,32.5324524 27.4379843,32.5114652 27.5954288,32.4683249 C27.7539092,32.4251846 27.9009956,32.3563933 28.0356521,32.261951 C28.1723803,32.1686747 28.2863204,32.0474155 28.3764367,31.8993393 C28.4675888,31.7512631 28.5131649,31.5728721 28.5131649,31.3630004 C28.5131649,31.2020987 28.4800186,31.0621842 28.4157978,30.9432569 C28.351577,30.8254955 28.2676756,30.7263894 28.1651295,30.6459386 C28.0625834,30.5654878 27.9496791,30.4990284 27.8253807,30.4488923 C27.7010824,30.3975904 27.5788557,30.355616 27.4597365,30.3229693 L26.3203351,30.0081617 C26.1680696,29.9650214 26.0220191,29.9125534 25.8832193,29.84726 C25.7454553,29.7831325 25.6232286,29.6968519 25.5186108,29.5895841 C25.4129573,29.4811504 25.3290559,29.3505635 25.2637992,29.1943257 C25.1995784,29.0380878 25.167468,28.8468714 25.167468,28.6218422 C25.167468,28.4819277 25.1912919,28.3175282 25.2389396,28.1298096 C25.2865873,27.9420909 25.3767036,27.7637 25.5082526,27.5981345 C25.6387659,27.431403 25.8189985,27.2903226 26.0489504,27.1737272 C26.2778665,27.0582977 26.5710034,27 26.9304327,27 C27.1831727,27 27.4234828,27.0384765 27.6534347,27.1142635 C27.8823508,27.1888846 28.0843356,27.3019821 28.2583533,27.4523902 C28.4323709,27.6027983 28.5701349,27.789351 28.6706094,28.0132141 C28.7700481,28.2359114 28.8208032,28.4959192 28.8208032,28.7909056 L28.3339681,28.7909056 C28.3236099,28.5705402 28.2811413,28.3781578 28.2044907,28.2149242 C28.12784,28.0505247 28.0252939,27.9129421 27.8968523,27.8033424 C27.7673749,27.6925768 27.6213243,27.609794 27.4555932,27.5538282 C27.2908979,27.4966965 27.1179161,27.4687136 26.9366477,27.4687136 C26.7698807,27.4687136 26.6082929,27.4885348 26.45292,27.5293432 C26.2975471,27.5689856 26.1618547,27.6331131 26.0448071,27.7228916 C25.9277595,27.8115041 25.8334999,27.9280995 25.7620284,28.0726778 C25.6905569,28.2184221 25.6543032,28.399145 25.6543032,28.6136805 C25.6543032,28.7489312 25.6750196,28.8655266 25.7154165,28.9646327 C25.7558135,29.0637388 25.8127836,29.1465216 25.8832193,29.2141469 C25.9557266,29.2817723 26.0375564,29.337738 26.1307801,29.3832103 C26.2240039,29.4298484 26.3234425,29.465993 26.4280603,29.4928099 L27.6741511,29.8390983 C27.8564553,29.8927322 28.0263297,29.9591916 28.1868817,30.0373105 C28.3463979,30.1142635 28.4883052,30.2110377 28.6094961,30.3276331 C28.7306869,30.4430626 28.8270182,30.584143 28.8964181,30.7508745 C28.9647821,30.91644 29,31.11815 29,31.3548387 C29,31.4201321 28.9937851,31.5052468 28.9823911,31.6136805 C28.9699612,31.7209483 28.9419941,31.8352118 28.8964181,31.9553051 C28.850842,32.0765643 28.7866212,32.1989895 28.7027198,32.3225806 C28.6188184,32.4461718 28.5048783,32.5592693 28.3588278,32.6607073 C28.2127772,32.7633113 28.0335805,32.8460941 27.81813,32.9067237 C27.6037154,32.9696852 27.3457963,33 27.0443729,33 C26.7429494,33 26.464314,32.9615235 26.2063949,32.8834046 C25.9484759,32.8052857 25.7278464,32.6840264 25.546578,32.5196269 C25.3653096,32.3563933 25.2254739,32.1465216 25.1281069,31.8911776 C25.0307399,31.6358337 24.9882713,31.3338515 25.0027727,30.9840653 L25.4896079,30.9840653 Z" id="Fill-24" fill="#2576B7"></path>
                    <polygon id="Fill-26" fill="#2576B7" points="37 28 40.9593496 28 40.9593496 28.4872418 37.5458769 28.4872418 37.5458769 30.6561361 40.7433217 30.6561361 40.7433217 31.1421628 37.5458769 31.1421628 37.5458769 33.5127582 41 33.5127582 41 34 37 34"></polygon>
                    <path d="M51.3976201,31.6464156 L53.5788056,31.6464156 L52.5078581,28.5710814 L51.3976201,31.6464156 Z M52.2361922,28 L52.8255501,28 L55,34 L54.4330938,34 L53.7584194,32.1336574 L51.2348451,32.1336574 L50.5669062,34 L50,34 L52.2361922,28 Z" id="Fill-28" fill="#2576B7"></path>
                    <path d="M62.4829181,30.8493317 L64.2882096,30.8493317 C64.43514,30.8493317 64.574878,30.8226002 64.7074236,30.7691373 C64.8399692,30.7156744 64.956075,30.6391252 65.0547136,30.5382746 C65.1554071,30.4374241 65.2345235,30.3159174 65.2930902,30.1725395 C65.3526843,30.0291616 65.3824814,29.8651276 65.3824814,29.6804374 C65.3824814,29.3110571 65.2910352,29.0206561 65.1091703,28.8068044 C64.9262779,28.5941677 64.6529669,28.4884569 64.2882096,28.4884569 L62.4829181,28.4884569 L62.4829181,30.8493317 Z M62,28 L64.3241716,28 C64.5317236,28 64.7300283,28.0315917 64.9170306,28.0923451 C65.1040329,28.1543135 65.267403,28.2478736 65.407141,28.3742406 C65.546879,28.5006075 65.6578474,28.6622114 65.7410737,28.8614824 C65.8232725,29.0607533 65.8653994,29.2940462 65.8653994,29.5625759 C65.8653994,29.9441069 65.7821731,30.2746051 65.616748,30.5552855 C65.4513229,30.8347509 65.2047264,31.0145808 64.8779861,31.0923451 L64.8779861,31.109356 C65.0434113,31.1373026 65.1810943,31.1895504 65.2900077,31.2648846 C65.3989211,31.3402187 65.4872849,31.4374241 65.5561264,31.5552855 C65.6249679,31.673147 65.6742872,31.8092345 65.7061392,31.9623329 C65.7369638,32.1166464 65.756486,32.2831106 65.7657334,32.4629405 C65.7708708,32.563791 65.7760082,32.6865128 65.7801182,32.8323208 C65.7852556,32.9769137 65.794503,33.1251519 65.8088877,33.27339 C65.8222451,33.4216282 65.8448497,33.5613609 65.8756743,33.6938032 C65.9075263,33.8250304 65.9486257,33.927096 66,34 L65.4677627,34 C65.4389931,33.9441069 65.4163884,33.8760632 65.3999486,33.7946537 C65.3835089,33.7132442 65.371179,33.6294046 65.3609042,33.5419198 C65.3516568,33.4556501 65.3454919,33.3693803 65.3434369,33.2855407 C65.3403545,33.2017011 65.337272,33.1287971 65.3321346,33.0680437 C65.3228872,32.8602673 65.307475,32.6500608 65.2869253,32.4374241 C65.2653481,32.2235723 65.2201387,32.0352369 65.1512972,31.8699878 C65.0824557,31.7047388 64.9827896,31.5710814 64.8533265,31.4702309 C64.7228359,31.3705954 64.5440534,31.3256379 64.3159517,31.3365735 L62.4829181,31.3365735 L62.4829181,34 L62,34 L62,28 Z" id="Fill-30" fill="#2576B7"></path>
                    <path d="M79.3842645,28.8631947 C79.336374,28.6428294 79.2599772,28.4457831 79.1516534,28.27089 C79.0444698,28.0959969 78.9122007,27.9490867 78.7571266,27.8313253 C78.6020525,27.7135639 78.4321551,27.6237855 78.2440137,27.5608239 C78.0581528,27.5001943 77.8631699,27.4687136 77.6567845,27.4687136 C77.2839225,27.4687136 76.963512,27.5410027 76.695553,27.686747 C76.4275941,27.8313253 76.2075257,28.0237077 76.036488,28.2627283 C75.8665906,28.5017489 75.7400228,28.7734162 75.6579247,29.0777303 C75.5769669,29.3808784 75.5359179,29.6886902 75.5359179,30 C75.5359179,30.3183055 75.5769669,30.6272833 75.6579247,30.9280995 C75.7400228,31.2289157 75.8665906,31.499417 76.036488,31.7384376 C76.2075257,31.9774582 76.4275941,32.1686747 76.695553,32.314419 C76.963512,32.4589973 77.2839225,32.5324524 77.6567845,32.5324524 C77.9144812,32.5324524 78.1493729,32.4834823 78.3625998,32.3867081 C78.5758267,32.2899339 78.7582668,32.1593471 78.9110604,31.9926156 C79.063854,31.8258842 79.1870011,31.6311698 79.281642,31.4073066 C79.3762828,31.1846094 79.4367161,30.9432569 79.4629418,30.685581 L80,30.685581 C79.9623717,31.0400311 79.8814139,31.3606685 79.7548461,31.6451613 C79.6282782,31.9296541 79.4652223,32.1733385 79.2656784,32.3750486 C79.0661345,32.5767586 78.8312429,32.7306646 78.5598632,32.8390983 C78.2896237,32.9463661 77.9885975,33 77.6567845,33 C77.2155074,33 76.8278221,32.9183832 76.4937286,32.7539837 C76.1607754,32.5895841 75.8825542,32.3692188 75.6624857,32.0928877 C75.4412771,31.8153906 75.2759407,31.4959192 75.1653364,31.1333074 C75.054732,30.7706957 75,30.3929265 75,30 C75,29.6082394 75.054732,29.2304703 75.1653364,28.8666926 C75.2759407,28.5040808 75.4412771,28.1846094 75.6624857,27.9082783 C75.8825542,27.6307812 76.1607754,27.4104159 76.4937286,27.2460163 C76.8278221,27.0827827 77.2155074,27 77.6567845,27 C77.9258837,27 78.1870011,27.0408084 78.4424173,27.1212592 C78.6966933,27.202876 78.9281642,27.3218033 79.1356899,27.4803731 C79.3432155,27.6389429 79.5176739,27.8336572 79.6567845,28.0645161 C79.7958951,28.296541 79.8836944,28.5623785 79.9213227,28.8631947 L79.3842645,28.8631947 Z" id="Fill-32" fill="#2576B7"></path>
                    <polygon id="Fill-34" fill="#2576B7" points="89 28 89.4854118 28 89.4854118 30.6051033 92.5135554 30.6051033 92.5135554 28 93 28 93 34 92.5135554 34 92.5135554 31.0923451 89.4854118 31.0923451 89.4854118 34 89 34"></polygon>
                    <g id="Group-38" transform="translate(111.000000, 27.000000)">
                        <mask id="mask-8" fill="white">
                            <use xlink:href="#path-7"></use>
                        </mask>
                        <g id="Clip-37"></g>
                        <path d="M5.31325714,5.88148571 L4.92582857,5.88148571 L4.85497143,4.85405714 L4.83897143,4.85405714 C4.74411429,5.05405714 4.6264,5.22662857 4.48697143,5.37177143 C4.34754286,5.51691429 4.1944,5.63462857 4.02525714,5.7272 C3.85611429,5.81977143 3.67554286,5.88834286 3.48354286,5.93291429 C3.2904,5.97748571 3.09268571,6.00034286 2.88697143,6.00034286 C2.44468571,6.00034286 2.05497143,5.9192 1.72125714,5.7592 C1.3864,5.59805714 1.10868571,5.38205714 0.886971429,5.1112 C0.6664,4.8392 0.499542857,4.52605714 0.388685714,4.16948571 C0.278971429,3.81405714 0.222971429,3.44491429 0.222971429,3.05977143 C0.222971429,2.67462857 0.278971429,2.30548571 0.388685714,1.94891429 C0.499542857,1.59348571 0.6664,1.28034286 0.886971429,1.00834286 C1.10868571,0.737485714 1.3864,0.521485714 1.72125714,0.360342857 C2.05497143,0.1992 2.44468571,0.1192 2.88697143,0.1192 C3.18182857,0.1192 3.46068571,0.1592 3.72468571,0.238057143 C3.98754286,0.316914286 4.22411429,0.435771429 4.43211429,0.593485714 C4.64011429,0.752342857 4.81382857,0.947771429 4.95325714,1.18205714 C5.09382857,1.41748571 5.18982857,1.6872 5.2424,1.99234286 L4.70411429,1.99234286 C4.68925714,1.83005714 4.6344,1.66434286 4.54297143,1.49862857 C4.4504,1.33291429 4.32697143,1.18091429 4.1704,1.04491429 C4.01611429,0.906628571 3.82982857,0.794628571 3.61382857,0.708914286 C3.39782857,0.620914286 3.15554286,0.577485714 2.88697143,0.577485714 C2.51211429,0.577485714 2.19097143,0.648342857 1.9224,0.7912 C1.65382857,0.932914286 1.43325714,1.12148571 1.26297143,1.35691429 C1.09154286,1.5912 0.964685714,1.85748571 0.883542857,2.15462857 C0.801257143,2.45291429 0.761257143,2.75462857 0.761257143,3.05977143 C0.761257143,3.37062857 0.801257143,3.67348571 0.883542857,3.96834286 C0.964685714,4.2632 1.09154286,4.52834286 1.26297143,4.76262857 C1.43325714,4.99805714 1.65382857,5.18548571 1.9224,5.32834286 C2.19097143,5.47005714 2.51211429,5.54205714 2.88697143,5.54205714 C3.19782857,5.54205714 3.47554286,5.48948571 3.72011429,5.38662857 C3.96582857,5.28491429 4.17154286,5.14091429 4.34068571,4.95691429 C4.50982857,4.77177143 4.63668571,4.55348571 4.72011429,4.30091429 C4.80468571,4.04834286 4.84468571,3.77062857 4.83897143,3.4712 L2.91782857,3.4712 L2.91782857,3.01177143 L5.31325714,3.01177143 L5.31325714,5.88148571 Z" id="Fill-36" fill="#2576B7" mask="url(#mask-8)"></path>
                    </g>
                    <path d="M125.482918,30.8493317 L127.28821,30.8493317 C127.434113,30.8493317 127.573851,30.8226002 127.707424,30.7691373 C127.838942,30.7156744 127.956075,30.6391252 128.054714,30.5382746 C128.15438,30.4374241 128.233496,30.3159174 128.29309,30.1725395 C128.352684,30.0291616 128.382481,29.8651276 128.382481,29.6804374 C128.382481,29.3110571 128.290008,29.0206561 128.108143,28.8068044 C127.926278,28.5941677 127.651939,28.4884569 127.28821,28.4884569 L125.482918,28.4884569 L125.482918,30.8493317 Z M125,28 L127.323144,28 C127.531724,28 127.730028,28.0315917 127.917031,28.0923451 C128.104033,28.1543135 128.267403,28.2478736 128.407141,28.3742406 C128.546879,28.5006075 128.657847,28.6622114 128.741074,28.8614824 C128.823273,29.0607533 128.865399,29.2940462 128.865399,29.5625759 C128.865399,29.9441069 128.782173,30.2746051 128.616748,30.5552855 C128.450295,30.8347509 128.203699,31.0145808 127.877986,31.0923451 L127.877986,31.109356 C128.043411,31.1373026 128.180067,31.1895504 128.28898,31.2648846 C128.397894,31.3402187 128.487285,31.4374241 128.556126,31.5552855 C128.624968,31.673147 128.674287,31.8092345 128.705112,31.9623329 C128.736964,32.1166464 128.756486,32.2831106 128.765733,32.4629405 C128.770871,32.563791 128.774981,32.6865128 128.780118,32.8323208 C128.784228,32.9769137 128.794503,33.1251519 128.808888,33.27339 C128.822245,33.4216282 128.84485,33.5613609 128.875674,33.6938032 C128.906499,33.8250304 128.948626,33.927096 129,34 L128.467763,34 C128.438993,33.9441069 128.416388,33.8760632 128.399949,33.7946537 C128.383509,33.7132442 128.370152,33.6294046 128.360904,33.5419198 C128.351657,33.4556501 128.345492,33.3693803 128.343437,33.2855407 C128.340354,33.2017011 128.337272,33.1287971 128.332135,33.0680437 C128.322887,32.8602673 128.307475,32.6500608 128.286925,32.4374241 C128.265348,32.2235723 128.220139,32.0352369 128.151297,31.8699878 C128.082456,31.7047388 127.98279,31.5710814 127.853326,31.4702309 C127.722836,31.3705954 127.543026,31.3256379 127.315952,31.3365735 L125.482918,31.3365735 L125.482918,34 L125,34 L125,28 Z" id="Fill-39" fill="#2576B7"></path>
                    <g id="Group-43" transform="translate(138.000000, 27.000000)">
                        <mask id="mask-10" fill="white">
                            <use xlink:href="#path-9"></use>
                        </mask>
                        <g id="Clip-42"></g>
                        <path d="M0.65052,3.05954286 C0.65052,3.3704 0.69252,3.6744 0.77892,3.96811429 C0.86412,4.26411429 0.99732,4.52925714 1.17732,4.76354286 C1.35612,4.99782857 1.58772,5.18525714 1.86972,5.32811429 C2.15172,5.46982857 2.48892,5.54182857 2.88252,5.54182857 C3.27012,5.54182857 3.60372,5.46982857 3.88692,5.32811429 C4.16892,5.18525714 4.40052,4.99782857 4.57932,4.76354286 C4.75932,4.52925714 4.89252,4.26411429 4.97772,3.96811429 C5.06412,3.6744 5.10612,3.3704 5.10612,3.05954286 C5.10612,2.7544 5.06412,2.45268571 4.97772,2.1544 C4.89252,1.85725714 4.75932,1.59097143 4.57932,1.35668571 C4.40052,1.1224 4.16892,0.933828571 3.88692,0.792114286 C3.60372,0.649257143 3.27012,0.5784 2.88252,0.5784 C2.48892,0.5784 2.15172,0.649257143 1.86972,0.792114286 C1.58772,0.933828571 1.35612,1.1224 1.17732,1.35668571 C0.99732,1.59097143 0.86412,1.85725714 0.77892,2.1544 C0.69252,2.45268571 0.65052,2.7544 0.65052,3.05954286 M0.08532,3.05954286 C0.08532,2.67554286 0.14412,2.30525714 0.26052,1.94868571 C0.37572,1.59325714 0.55092,1.28011429 0.78252,1.00925714 C1.01532,0.737257143 1.30692,0.521257143 1.65852,0.360114286 C2.01012,0.200114286 2.41812,0.118971429 2.88252,0.118971429 C3.34812,0.118971429 3.75372,0.200114286 4.10172,0.360114286 C4.45092,0.521257143 4.74132,0.737257143 4.97412,1.00925714 C5.20572,1.28011429 5.37972,1.59325714 5.49732,1.94868571 C5.61252,2.30525714 5.67132,2.67554286 5.67132,3.05954286 C5.67132,3.44468571 5.61252,3.81497143 5.49732,4.1704 C5.37972,4.52582857 5.20572,4.83897143 4.97412,5.11097143 C4.74132,5.38182857 4.45092,5.59782857 4.10172,5.75897143 C3.75372,5.91897143 3.34812,6.00011429 2.88252,6.00011429 C2.41812,6.00011429 2.01012,5.91897143 1.65852,5.75897143 C1.30692,5.59782857 1.01532,5.38182857 0.78252,5.11097143 C0.55092,4.83897143 0.37572,4.52582857 0.26052,4.1704 C0.14412,3.81497143 0.08532,3.44468571 0.08532,3.05954286" id="Fill-41" fill="#2576B7" mask="url(#mask-10)"></path>
                    </g>
                    <g id="Group-46" transform="translate(151.000000, 27.000000)">
                        <mask id="mask-12" fill="white">
                            <use xlink:href="#path-11"></use>
                        </mask>
                        <g id="Clip-45"></g>
                        <path d="M0.1188,0.238057143 L0.5888,0.238057143 L0.5888,3.73177143 C0.5888,4.05862857 0.6208,4.33634286 0.6858,4.56491429 C0.7508,4.79462857 0.8448,4.98205714 0.9698,5.12605714 C1.0948,5.2712 1.2458,5.37748571 1.4258,5.44262857 C1.6058,5.50891429 1.8088,5.54205714 2.0348,5.54205714 C2.2608,5.54205714 2.4648,5.50891429 2.6468,5.44262857 C2.8288,5.37748571 2.9818,5.2712 3.1068,5.12605714 C3.2308,4.98205714 3.3258,4.79462857 3.3898,4.56491429 C3.4548,4.33634286 3.4868,4.05862857 3.4868,3.73177143 L3.4868,0.238057143 L3.9568,0.238057143 L3.9568,3.85062857 C3.9568,4.13977143 3.9218,4.4152 3.8498,4.67577143 C3.7788,4.93634286 3.6658,5.16491429 3.5118,5.3592 C3.3568,5.55462857 3.1588,5.71005714 2.9158,5.82662857 C2.6748,5.94205714 2.3808,6.00034286 2.0348,6.00034286 C1.6938,6.00034286 1.4018,5.94205714 1.1598,5.82662857 C0.9178,5.71005714 0.7198,5.55462857 0.5648,5.3592 C0.4108,5.16491429 0.2978,4.93634286 0.2258,4.67577143 C0.1548,4.4152 0.1188,4.13977143 0.1188,3.85062857 L0.1188,0.238057143 Z" id="Fill-44" fill="#2576B7" mask="url(#mask-12)"></path>
                    </g>
                    <path d="M164.513942,30.9404617 L166.283215,30.9404617 C166.641881,30.9404617 166.930563,30.8396112 167.153636,30.6379101 C167.375615,30.436209 167.486058,30.1287971 167.486058,29.7132442 C167.486058,29.2989064 167.375615,28.9914945 167.153636,28.7885784 C166.930563,28.5880923 166.641881,28.4872418 166.283215,28.4872418 L164.513942,28.4872418 L164.513942,30.9404617 Z M164,28 L166.396938,28 C166.6386,28 166.858393,28.0376671 167.055221,28.1130012 C167.250957,28.1883354 167.420448,28.3013366 167.561509,28.4495747 C167.70257,28.5978129 167.810826,28.7788578 167.886277,28.9914945 C167.962821,29.2041312 168,29.4447145 168,29.7132442 C168,29.9829891 167.962821,30.2235723 167.886277,30.436209 C167.810826,30.6488457 167.70257,30.8298906 167.561509,30.9781288 C167.420448,31.126367 167.250957,31.2393682 167.055221,31.3147023 C166.858393,31.3900365 166.6386,31.4277035 166.396938,31.4277035 L164.513942,31.4277035 L164.513942,34 L164,34 L164,28 Z" id="Fill-47" fill="#2576B7"></path>
                    <path d="M76,14.1518566 C76.449405,13.2504481 77.0442753,12.4996159 77.7869761,11.8993598 C78.5273117,11.2991037 79.4048341,11 80.4207258,11 C81.4780102,11 82.7398921,11.4015365 84.2040062,12.2035851 C85.669303,13.0056338 86.780989,13.4071703 87.5390642,13.4071703 C88.2900436,13.4071703 88.9156627,13.2350832 89.4194693,12.8909091 C89.9209106,12.5477593 90.4282652,12.0120359 90.9403504,11.2868118 L92,11.9055058 C91.6203711,12.5856594 91.0207702,13.2709347 90.2000148,13.962356 C89.3792594,14.6548015 88.3822899,15 87.2091064,15 C86.0796807,15 84.7894153,14.5984635 83.3383103,13.7964149 C81.8872053,12.9943662 80.7778845,12.593854 80.0103481,12.593854 C79.3658068,12.593854 78.8005026,12.7690141 78.3156183,13.1203585 C77.830734,13.4717029 77.4037992,13.9838668 77.0324488,14.6568502 L76,14.1518566 Z" id="Fill-49" fill="#2576B7"></path>
                </g>
            </g>
        </g>
    </g>
</svg>