<svg width="107px" height="29px" viewBox="0 0 107 29" version="1.1" xmlns="http://www.w3.org/2000/svg" xmlns:xlink="http://www.w3.org/1999/xlink">
    <g id="Page-1" stroke="none" stroke-width="1" fill="none" fill-rule="evenodd">
        <g id="Artboard-Copy-6" transform="translate(-100.000000, -471.000000)" fill="#D81F26" fill-rule="nonzero">
            <g id="Group-2" transform="translate(40.000000, 111.000000)">
                <g id="Netflix_2015_logo" transform="translate(60.000000, 360.000000)">
                    <path d="M14.7128135,27.1307427 C13.1032158,27.4142017 11.4653008,27.499187 9.77095996,27.725535 L4.60298535,12.545967 L4.60298535,28.377019 C2.9933877,28.5468848 1.52495898,28.7734424 0,29 L0,3.55271368e-14 L4.29253906,3.55271368e-14 L10.1662539,16.4543474 L10.1662539,3.55271368e-14 L14.7128135,3.55271368e-14 L14.7128135,27.1307427 Z M23.6083379,10.6201227 C25.3593135,10.6201227 28.0420459,10.5351374 29.6516436,10.5351374 L29.6516436,15.0662892 C27.646543,15.0662892 25.3027832,15.0662892 23.6083379,15.1512745 L23.6083379,21.8916247 C26.2629619,21.7217589 28.9174814,21.4949917 31.6001094,21.4100064 L31.6001094,25.7710828 L19.0898867,26.762508 L19.0898867,6.39488462e-14 L31.6001094,6.39488462e-14 L31.6001094,4.53125655 L23.6083379,4.53125655 L23.6083379,10.6201227 Z M48.4026621,4.53136134 L43.7149336,4.53136134 L43.7149336,25.3750786 C42.1899746,25.3750786 40.6650156,25.3750786 39.1967959,25.4315608 L39.1967959,4.53136134 L34.5090674,4.53136134 L34.5090674,0 L48.4028711,0 L48.4026621,4.53136134 Z M55.7449102,10.3086846 L61.9294893,10.3086846 L61.9294893,14.8398364 L55.7449102,14.8398364 L55.7449102,25.1202275 L51.3109932,25.1202275 L51.3109932,6.39488462e-14 L63.9344854,6.39488462e-14 L63.9344854,4.53125655 L55.7449102,4.53125655 L55.7449102,10.3086846 Z M71.2767334,21.1552601 C73.8466143,21.2117423 76.444499,21.4103208 78.9579541,21.5516835 L78.9579541,26.0263531 C74.919749,25.7712924 70.8814395,25.5167557 66.7584912,25.4315608 L66.7584912,3.55271368e-14 L71.2767334,3.55271368e-14 L71.2767334,21.1552601 Z M82.7702471,26.3378959 C84.2104629,26.422986 85.7354219,26.5079713 87.2038506,26.6776275 L87.2038506,7.10542736e-15 L82.7702471,7.10542736e-15 L82.7702471,26.3378959 Z M107,3.55271368e-14 L101.267245,13.7920337 L107,29 C105.30545,28.7734424 103.611109,28.4618995 101.916664,28.1786502 L98.6692559,19.7960194 L95.3655264,27.499187 C93.7272979,27.215728 92.1459131,27.1307427 90.5083115,26.9041851 L96.3256006,13.6219584 L91.0728828,3.85054689e-14 L95.9298887,3.85054689e-14 L98.8950635,7.61818228 L102.058042,3.85054689e-14 L107,3.55271368e-14 Z" id="Shape"></path>
                </g>
            </g>
        </g>
    </g>
</svg>