  <svg width="72px" height="60px" viewBox="0 0 72 60" version="1.1" xmlns="http://www.w3.org/2000/svg" xmlns:xlink="http://www.w3.org/1999/xlink">
    <g id="Page-1" stroke="none" stroke-width="1" fill="none" fill-rule="evenodd">
        <g id="Artboard-Copy-5" transform="translate(-102.000000, -446.000000)" fill-rule="nonzero">
            <g id="Group-2" transform="translate(40.000000, 62.000000)">
                <g id="Amazon.com_Favicon-(1)" transform="translate(62.000000, 384.000000)">
                    <path d="M53.5275134,22.0042304 C53.5275134,24.4894241 53.6164565,26.9596782 53.4978657,29.4448719 C53.3792749,32.2723057 54.2393065,34.6978657 56.0185411,36.8406948 C56.226075,37.0936711 56.4189712,37.3466474 56.5967334,37.6145633 C57.2344692,38.581899 57.1157543,39.2514397 56.2409609,39.9955536 C54.3725351,41.5730453 52.5191192,43.1652276 50.6509415,44.7427193 C49.5388424,45.6801758 48.8419352,45.6653608 47.7150742,44.7427193 C46.202669,43.5075922 45.0163886,41.9897342 43.9637089,40.3675484 C43.7116413,39.9807386 43.5781646,39.9955536 43.2668017,40.2930996 C41.3983759,42.1234431 39.4263692,43.8199532 36.9205797,44.6682705 C33.0504995,45.9926614 29.1211239,46.2010681 25.2362819,44.8170435 C21.4996784,43.4777131 19.2607182,40.7097885 18.4303343,36.8556343 C17.5110073,32.5549122 17.9854947,28.4625967 20.6247609,24.8167247 C22.6265393,22.0637396 25.3992822,20.4416783 28.5872171,19.4447125 C31.8789809,18.4328072 35.2744497,18.0458729 38.6848044,17.7036328 C39.648665,17.5994294 40.5976397,17.5101656 41.5613763,17.4209019 C41.7985579,17.4059623 42.0062159,17.3762077 41.99133,17.0637222 C41.9618064,15.486355 42.1248067,13.8791087 41.7541484,12.3314961 C41.279661,10.3523796 39.9895516,9.19157677 38.0175449,8.75994836 C36.6089687,8.44746283 35.2151543,8.53672662 33.8509876,8.99810964 C31.7751519,9.71234449 30.4850425,11.1558782 29.9661456,13.2987073 C29.6844303,14.4743252 29.1357617,14.891014 27.9940148,14.7718711 C25.5622826,14.5188948 23.1305504,14.2659185 20.713704,14.0129421 C19.7201957,13.9087388 19.2012988,13.1498098 19.4088327,12.1824741 C20.6691704,6.0068388 24.702375,2.53949439 30.5148142,0.947187653 C34.9779726,-0.272999864 39.5004264,-0.347448608 43.9783467,0.917433055 C47.5814735,1.92933839 50.6064079,3.71511226 52.2966994,7.25678092 C53.26056,9.26577653 53.4829798,11.4383602 53.5126275,13.6110683 C53.5422752,16.394057 53.5126275,19.2065512 53.5275134,22.0042304 C53.5126275,22.0042304 53.5275134,22.0042304 53.5275134,22.0042304 Z M41.9914541,26.6471927 C41.9914541,25.9030788 41.9619304,25.1590893 42.00634,24.4149754 C42.0359877,23.9535924 41.8728633,23.7898798 41.4132618,23.834574 C40.2862767,23.9386528 39.1446539,23.9535924 38.0176689,24.1023653 C36.0456622,24.3553417 34.117941,24.8464793 32.5165927,26.0964214 C30.1885654,27.9268894 29.6993162,30.4268982 30.0847364,33.2393924 C30.5444619,36.5428998 33.4803292,38.3733678 36.6238545,37.2721987 C38.7589857,36.5280847 40.0637329,34.950842 40.9682981,32.9714765 C41.9172728,30.9627299 41.9914541,28.8049613 41.9914541,26.6471927 Z" id="Shape" fill="#050606"></path>
                    <path d="M36.3850931,60 C25.1351229,59.9279893 15.0351656,57.1069265 5.90833408,51.1621872 C4.05052613,49.9530571 2.28116174,48.6288062 0.600364243,47.1751045 C0.452958327,47.0455333 0.305429059,46.9160826 0.187504326,46.7576108 C0.0252961431,46.541699 -0.0926285894,46.2826771 0.0990607771,46.0235348 C0.290750144,45.7356122 0.61516651,45.706832 0.895299426,45.8364032 C1.54400881,46.1386556 2.16336036,46.4696882 2.79726747,46.786391 C8.60666413,49.7802554 14.7255515,51.9393734 21.1393741,53.3067344 C26.9486474,54.5446448 32.8168831,55.1204898 38.7736857,54.962018 C47.281289,54.7317763 55.4791549,53.0620424 63.3674067,49.9672666 C63.7507854,49.8090357 64.1489664,49.6506843 64.5470241,49.5642232 C65.1074133,49.4634323 65.6676791,49.535443 65.9183308,50.125618 C66.1541803,50.6725624 65.8445662,51.104386 65.4317063,51.4498689 C65.1367711,51.6944405 64.7976758,51.8960224 64.4585805,52.1119342 C59.3717813,55.3361608 53.7983574,57.4088177 47.9006406,58.6899585 C44.0080142,59.5538465 40.0565489,59.9710994 36.3850931,60 Z" id="Shape" fill="#F6A61F"></path>
                    <path d="M64.1550949,46.5500313 C62.4000482,46.5350244 60.6603228,46.759252 58.9204697,46.9385841 C58.5846795,46.9684728 58.2031809,47.0581388 58.050607,46.6994747 C57.8675183,46.29579 58.2185021,46.0566806 58.5084564,45.8623417 C60.675644,44.4573238 63.1021435,43.9041957 65.6508298,43.7696341 C67.4058764,43.6650863 69.1456018,43.7398705 70.8549402,44.247978 C71.6332585,44.4722056 72.0147571,44.9206608 71.9995636,45.6980165 C71.9080192,49.8535429 70.4886351,53.4710731 67.4211976,56.4159206 C67.3143321,56.5205934 67.192273,56.6102595 67.0702138,56.6999255 C66.7955808,56.8943895 66.4597906,57.0735965 66.1697087,56.8344871 C65.8950757,56.6102595 66.0476496,56.281359 66.1697087,56.0123609 C67.0702138,53.8149805 67.9859126,51.6326069 68.428313,49.285658 C68.4894703,48.9866462 68.5046638,48.6877595 68.519985,48.4036294 C68.5351786,47.4319348 68.1841948,47.0134934 67.2074665,46.774384 C66.1849022,46.5051358 65.1623379,46.5500313 64.1550949,46.5500313 Z" id="Shape" fill="#F6A61F"></path>
                </g>
            </g>
        </g>
    </g>
</svg>